<svg width="109" height="22" viewBox="0 0 109 22" fill="none" xmlns="http://www.w3.org/2000/svg">
<g id="Group 142">
<path id="Worklyze" d="M24.446 19L20.4119 4.45455H22.7202L25.554 15.7188H25.6889L28.6364 4.45455H30.9233L33.8707 15.7259H34.0057L36.8324 4.45455H39.1477L35.1065 19H32.8977L29.8366 8.10511H29.723L26.6619 19H24.446ZM44.4993 19.2202C43.4766 19.2202 42.584 18.9858 41.8217 18.517C41.0594 18.0483 40.4676 17.3925 40.0462 16.5497C39.6248 15.7069 39.4141 14.7221 39.4141 13.5952C39.4141 12.4635 39.6248 11.474 40.0462 10.6264C40.4676 9.77888 41.0594 9.12074 41.8217 8.65199C42.584 8.18324 43.4766 7.94886 44.4993 7.94886C45.522 7.94886 46.4145 8.18324 47.1768 8.65199C47.9392 9.12074 48.531 9.77888 48.9524 10.6264C49.3738 11.474 49.5845 12.4635 49.5845 13.5952C49.5845 14.7221 49.3738 15.7069 48.9524 16.5497C48.531 17.3925 47.9392 18.0483 47.1768 18.517C46.4145 18.9858 45.522 19.2202 44.4993 19.2202ZM44.5064 17.4375C45.1693 17.4375 45.7185 17.2623 46.1541 16.9119C46.5897 16.5616 46.9117 16.0952 47.12 15.5128C47.3331 14.9304 47.4396 14.2888 47.4396 13.5881C47.4396 12.892 47.3331 12.2528 47.12 11.6705C46.9117 11.0833 46.5897 10.6122 46.1541 10.2571C45.7185 9.90199 45.1693 9.72443 44.5064 9.72443C43.8388 9.72443 43.2848 9.90199 42.8445 10.2571C42.4089 10.6122 42.0845 11.0833 41.8714 11.6705C41.6631 12.2528 41.5589 12.892 41.5589 13.5881C41.5589 14.2888 41.6631 14.9304 41.8714 15.5128C42.0845 16.0952 42.4089 16.5616 42.8445 16.9119C43.2848 17.2623 43.8388 17.4375 44.5064 17.4375ZM51.9549 19V8.09091H54.0075V9.82386H54.1211C54.32 9.23674 54.6703 8.77509 55.1722 8.43892C55.6789 8.09801 56.2518 7.92756 56.891 7.92756C57.0236 7.92756 57.1798 7.93229 57.3597 7.94176C57.5444 7.95123 57.6888 7.96307 57.793 7.97727V10.0085C57.7077 9.98485 57.5562 9.95881 57.3384 9.9304C57.1206 9.89725 56.9028 9.88068 56.685 9.88068C56.1831 9.88068 55.7357 9.98722 55.3427 10.2003C54.9544 10.4086 54.6467 10.6998 54.4194 11.0739C54.1921 11.4432 54.0785 11.8646 54.0785 12.3381V19H51.9549ZM61.5838 15.2997L61.5696 12.7074H61.9389L66.2855 8.09091H68.8281L63.8707 13.3466H63.5369L61.5838 15.2997ZM59.6307 19V4.45455H61.7543V19H59.6307ZM66.5199 19L62.6136 13.8153L64.0767 12.331L69.1264 19H66.5199ZM72.8871 4.45455V19H70.7635V4.45455H72.8871ZM77.0863 23.0909C76.7691 23.0909 76.4802 23.0649 76.2198 23.0128C75.9594 22.9654 75.7653 22.9134 75.6374 22.8565L76.1488 21.1165C76.5371 21.2206 76.8827 21.2656 77.1857 21.2514C77.4888 21.2372 77.7563 21.1236 77.9883 20.9105C78.225 20.6974 78.4334 20.3494 78.6133 19.8665L78.8761 19.142L74.8846 8.09091H77.1573L79.9201 16.5568H80.0337L82.7965 8.09091H85.0763L80.5806 20.456C80.3723 21.0241 80.1071 21.5047 79.7852 21.8977C79.4632 22.2955 79.0797 22.5938 78.6346 22.7926C78.1895 22.9915 77.6734 23.0909 77.0863 23.0909ZM86.8448 19V17.544L92.7539 10.0369V9.9375H87.0366V8.09091H95.4031V9.6392L89.7212 17.054V17.1534H95.6019V19H86.8448ZM102.496 19.2202C101.422 19.2202 100.496 18.9905 99.7195 18.5312C98.9477 18.0672 98.3511 17.4162 97.9297 16.5781C97.513 15.7353 97.3047 14.7481 97.3047 13.6165C97.3047 12.4991 97.513 11.5142 97.9297 10.6619C98.3511 9.80966 98.9382 9.14441 99.6911 8.66619C100.449 8.18797 101.334 7.94886 102.347 7.94886C102.963 7.94886 103.559 8.05066 104.137 8.25426C104.715 8.45786 105.233 8.77746 105.692 9.21307C106.152 9.64867 106.514 10.2145 106.779 10.9105C107.044 11.6018 107.177 12.4422 107.177 13.4318V14.1847H98.505V12.5938H105.096C105.096 12.035 104.982 11.5402 104.755 11.1094C104.528 10.6738 104.208 10.3305 103.796 10.0795C103.389 9.8286 102.911 9.70312 102.362 9.70312C101.765 9.70312 101.244 9.84991 100.799 10.1435C100.359 10.4323 100.018 10.8111 99.7763 11.2798C99.5395 11.7438 99.4212 12.2481 99.4212 12.7926V14.0355C99.4212 14.7647 99.549 15.3849 99.8047 15.8963C100.065 16.4077 100.427 16.7983 100.891 17.0682C101.355 17.3333 101.897 17.4659 102.518 17.4659C102.92 17.4659 103.287 17.4091 103.619 17.2955C103.95 17.1771 104.237 17.0019 104.478 16.7699C104.719 16.5379 104.904 16.2514 105.032 15.9105L107.042 16.2727C106.881 16.8646 106.592 17.383 106.175 17.8281C105.763 18.2685 105.245 18.6117 104.62 18.858C104 19.0994 103.292 19.2202 102.496 19.2202Z" fill="white"/>
<g id="mark">
<path id="Union" d="M13.4894 0C13.7714 8.40334e-09 14 0.233591 14 0.521739V19.4348C14 20.2992 13.3141 21 12.4681 21H8.51064C8.22862 21 8 20.7664 8 20.4783V3.92489C8 3.52512 8.1601 3.16362 8.41826 2.90345L8.40617 2.89504C8.34796 2.8544 8.3499 2.79165 8.41053 2.75493L10.6809 1.38039V1.32804H10.7674L12.7183 0.146867C12.7658 0.118138 12.835 0.114022 12.8908 0.132982C13.0057 0.0493363 13.1461 0 13.2979 0H13.4894Z" fill="#24B47E"/>
<path id="Union_2" d="M5.48936 8C5.77138 8 6 8.1446 6 8.32298V20.0311C6 20.5662 5.31414 21 4.46809 21H0.510638C0.228621 21 1.37473e-07 20.8554 0 20.677V10.4297C2.79957e-06 10.1822 0.160098 9.95843 0.41826 9.79737L0.406167 9.79217C0.347965 9.76701 0.349896 9.72816 0.41053 9.70543L2.68085 8.85453V8.82212H2.76737L4.71829 8.09092C4.76575 8.07313 4.83504 8.07059 4.89083 8.08232C5.00567 8.03054 5.1461 8 5.29787 8H5.48936Z" fill="#24B47E"/>
</g>
</g>
</svg>
